# xmcd
#
# Track frame offsets:
#	150
#	13765
#	27765
#	41176
#	54838
#	67521
#	83330
#	98258
#	111614
#	124105
#	137442
#	150200
#	163549
#	176290
#	189212
#	202011
#	215401
#	228438
#	240718
#	253477
#	265690
#	278232
#	289948
#	302888
#	316882
#
# Disc length: 4404 seconds
#
# Revision: 1
# Processed by: cddbd v1.4PL0 Copyright (c) Steve Scherf et al.
# Submitted via: CDmax 1.8
#
DISCID=49113219
DTITLE=Sonny Boy Williamson - Shake The Boogie
DYEAR=1999
DGENRE=Blues
TTITLE0=Good Morning, School Girl
TTITLE1=Bluebird Blues
TTITLE2=Sugar Mama Blues
TTITLE3=Skinny Woman
TTITLE4=Black Gal Blues
TTITLE5=Decoration Blues
TTITLE6=Sunnyland
TTITLE7=I'm Tired Trucking My Blues Away
TTITLE8=Good Gal Blues
TTITLE9=Miss Ida Lee
TTITLE10=Been Dealing with the Devil
TTITLE11=War Time Blues
TTITLE12=Train Fare Blues
TTITLE13=Decoration Day Blues No. 2
TTITLE14=Welfare Store Blues
TTITLE15=My Little Machine
TTITLE16=Jivin' the Blues
TTITLE17=Ground Hog Blues
TTITLE18=What's Getting Wrong with You
TTITLE19=Elevator Woman
TTITLE20=Shake the Boogie
TTITLE21=Mellow Chick Swing
TTITLE22=Lacey Belle
TTITLE23=Bring Another Half Pint
TTITLE24=Better Cut That Out
EXTD=
EXTT0=
EXTT1=
EXTT2=
EXTT3=
EXTT4=
EXTT5=
EXTT6=
EXTT7=
EXTT8=
EXTT9=
EXTT10=
EXTT11=
EXTT12=
EXTT13=
EXTT14=
EXTT15=
EXTT16=
EXTT17=
EXTT18=
EXTT19=
EXTT20=
EXTT21=
EXTT22=
EXTT23=
EXTT24=
PLAYORDER=
